<svg width="175" height="52" viewBox="0 0 175 52" fill="none" xmlns="http://www.w3.org/2000/svg">
<path fill-rule="evenodd" clip-rule="evenodd" d="M62.9947 25.7382C62.9947 28.8723 65.6403 31.3754 68.8151 31.3754C71.9899 31.3754 74.5946 28.8723 74.5946 25.7382C74.5946 22.6041 71.9899 20.1214 68.8151 20.1214C65.6403 20.1214 62.9947 22.6041 62.9947 25.7382ZM76.2627 25.7382C76.2627 29.7473 72.9659 32.9424 68.8145 32.9424C64.6425 32.9424 61.3457 29.7473 61.3457 25.7382C61.3457 21.7086 64.6425 18.5747 68.8145 18.5747C72.9659 18.5747 76.2627 21.729 76.2627 25.7382Z" fill="#DD4142"/>
<path fill-rule="evenodd" clip-rule="evenodd" d="M89.4506 32.861V26.593H80.8625V32.861H79.2344V18.6154H80.8625V25.0463H89.4506V18.6154H91.0787V32.861H89.4506Z" fill="#DD4142"/>
<path fill-rule="evenodd" clip-rule="evenodd" d="M106.689 20.6505L105.712 21.8917C104.613 20.7726 103.066 20.1009 101.499 20.1009C98.2838 20.1009 95.6993 22.5836 95.6993 25.7177C95.6993 28.8314 98.2838 31.3347 101.499 31.3347C103.066 31.3347 104.593 30.6835 105.712 29.6251L106.709 30.7445C105.305 32.0673 103.392 32.9424 101.418 32.9424C97.3069 32.9424 94.0508 29.7473 94.0508 25.7177C94.0508 21.729 97.3476 18.5747 101.479 18.5747C103.433 18.5747 105.325 19.3682 106.689 20.6505Z" fill="#DD4142"/>
<path fill-rule="evenodd" clip-rule="evenodd" d="M123.559 25.6161V31.1718C122.032 32.2505 119.631 33.0237 117.636 33.0237C113.302 33.0237 110.025 29.8899 110.025 25.7382C110.025 21.607 113.383 18.4931 117.881 18.4931C119.997 18.4931 122.236 19.3072 123.701 20.6096L121.666 23.0723C120.628 22.1156 119.183 21.5256 117.86 21.5256C115.52 21.5256 113.729 23.3571 113.729 25.7382C113.729 28.16 115.54 29.9915 117.901 29.9915C118.634 29.9915 119.57 29.7269 120.425 29.2996V25.6161H123.559Z" fill="#75403F"/>
<path fill-rule="evenodd" clip-rule="evenodd" d="M138.904 26.8778C138.904 30.6426 136.401 33.0237 132.412 33.0237C128.403 33.0237 125.839 30.6426 125.839 26.8778V18.6154H129.461V26.8778C129.461 28.8111 130.702 29.9914 132.433 29.9914C134.142 29.9914 135.302 28.8111 135.302 26.8778V18.6154H138.904V26.8778Z" fill="#75403F"/>
<path fill-rule="evenodd" clip-rule="evenodd" d="M141.51 32.861H145.132V18.6154H141.51V32.861Z" fill="#75403F"/>
<mask id="mask0" mask-type="alpha" maskUnits="userSpaceOnUse" x="147" y="18" width="28" height="15">
<path fill-rule="evenodd" clip-rule="evenodd" d="M147.98 18.6154H174.96V32.861H147.98V18.6154Z" fill="white"/>
</mask>
<g mask="url(#mask0)">
<path fill-rule="evenodd" clip-rule="evenodd" d="M151.602 29.971H154.187C156.405 29.971 157.993 28.2616 157.993 25.7584C157.993 23.235 156.324 21.5051 154.024 21.5051H151.602V29.971ZM154.106 18.6154C158.584 18.6154 161.677 21.5051 161.677 25.7382C161.677 29.9508 158.543 32.861 153.964 32.861H147.98V18.6154H154.106Z" fill="#75403F"/>
<path fill-rule="evenodd" clip-rule="evenodd" d="M167.212 21.4644V24.2933H174.009V27.1424H167.212V30.0119H174.966V32.861H163.59V18.6154H174.742V21.4644H167.212Z" fill="#75403F"/>
</g>
<path fill-rule="evenodd" clip-rule="evenodd" d="M18.1236 18.413H7.34558C3.28861 18.413 0 21.7017 0 25.7584V25.7586C0 29.8154 3.28861 33.104 7.34558 33.104H18.1236V43.882C18.1236 47.9388 21.4122 51.2276 25.469 51.2276H25.4692C29.5259 51.2276 32.8146 47.9388 32.8146 43.882V18.413H18.1236Z" fill="#DD4142"/>
<path fill-rule="evenodd" clip-rule="evenodd" d="M43.593 33.104H32.815V18.413H18.124V7.63501C18.124 3.57804 21.4126 0.289429 25.4694 0.289429H25.4696C29.5263 0.289429 32.815 3.57804 32.815 7.63501V18.413H43.593C47.6497 18.413 50.9386 21.7017 50.9386 25.7584V25.7586C50.9386 29.8154 47.6497 33.104 43.593 33.104Z" fill="#87CFE5"/>
<path fill-rule="evenodd" clip-rule="evenodd" d="M18.124 33.104H32.815V18.413H18.124V33.104Z" fill="#75403F"/>
</svg>
